<svg id="icon" xmlns="http://www.w3.org/2000/svg" xmlns:xlink="http://www.w3.org/1999/xlink" viewBox="0 0 100 100"><g xmlns="http://www.w3.org/2000/svg"><path d="M62,54.374V33.626C62,30.519,59.481,28,56.374,28H15.626C12.519,28,10,30.519,10,33.626v20.748   C10,57.481,12.519,60,15.626,60h40.747C59.481,60,62,57.481,62,54.374z M12,33.454c0-2,1.685-3.454,3.685-3.454h40.661   c2,0,3.655,1.454,3.655,3.454V49h-0.028H12.058H12V33.454z M15.685,58c-2,0-3.685-1.846-3.685-3.846V53h0.058h47.914H60v1.154   c0,2-1.655,3.846-3.655,3.846H15.685z" style="fill: inherit;"></path><polygon points="52,34.328 52,44.586 56.247,39.457  " style="fill: inherit;"></polygon><rect x="18" y="36" width="7" height="2" style="fill: inherit;"></rect><polygon points="32,41.714 32,41 18,41 18,43 32,43  " style="fill: inherit;"></polygon><path d="M95.459,52.065c0.55-0.57,0.863-1.234,0.863-1.958c0-2.233-2.938-3.917-6.833-3.917s-6.833,1.684-6.833,3.917   c0,0.724,0.313,1.388,0.863,1.958c-0.55,0.57-0.863,1.234-0.863,1.958c0,0.724,0.313,1.389,0.863,1.959   c-0.55,0.57-0.863,1.234-0.863,1.958s0.313,1.389,0.863,1.958c-0.55,0.57-0.863,1.234-0.863,1.958c0,0.037,0.007,0.073,0.009,0.109   c-0.267-0.032-0.538-0.053-0.814-0.053c-0.401,0-0.791,0.042-1.173,0.108c0.004-0.055,0.014-0.109,0.014-0.164   c0-0.724-0.313-1.389-0.863-1.958c0.55-0.57,0.863-1.234,0.863-1.958s-0.313-1.389-0.863-1.958c0.55-0.57,0.863-1.235,0.863-1.959   c0-0.724-0.313-1.388-0.863-1.958c0.55-0.57,0.863-1.234,0.863-1.958c0-0.724-0.313-1.389-0.863-1.958   c0.55-0.57,0.863-1.234,0.863-1.958s-0.313-1.389-0.863-1.958c0.55-0.57,0.863-1.234,0.863-1.958s-0.313-1.389-0.863-1.958   c0.55-0.57,0.863-1.235,0.863-1.959c0-0.724-0.313-1.388-0.863-1.958c0.55-0.57,0.863-1.234,0.863-1.958   c0-2.233-2.938-3.917-6.834-3.917c-3.896,0-6.833,1.684-6.833,3.917c0,0.724,0.313,1.388,0.863,1.958   c-0.55,0.57-0.863,1.234-0.863,1.958c0,0.724,0.313,1.389,0.863,1.959c-0.55,0.57-0.863,1.234-0.863,1.958s0.313,1.389,0.863,1.958   c-0.55,0.57-0.863,1.234-0.863,1.958s0.313,1.389,0.863,1.958c-0.55,0.57-0.863,1.234-0.863,1.958c0,0.724,0.313,1.388,0.863,1.958   c-0.55,0.57-0.863,1.234-0.863,1.958c0,0.724,0.313,1.389,0.863,1.959c-0.55,0.57-0.863,1.234-0.863,1.958s0.313,1.389,0.863,1.958   c-0.55,0.57-0.863,1.234-0.863,1.958s0.313,1.389,0.863,1.958c-0.55,0.57-0.863,1.234-0.863,1.958c0,0.724,0.313,1.388,0.863,1.958   c-0.55,0.57-0.863,1.234-0.863,1.958c0,2.233,2.938,3.917,6.833,3.917c1.042,0,2.013-0.124,2.88-0.343   c1.253,1.417,3.078,2.316,5.113,2.316c2.002,0,3.799-0.87,5.05-2.246c0.792,0.175,1.662,0.273,2.588,0.273   c3.896,0,6.833-1.684,6.833-3.917c0-0.724-0.313-1.388-0.863-1.958c0.55-0.57,0.863-1.234,0.863-1.958   c0-0.724-0.313-1.389-0.863-1.958c0.55-0.57,0.863-1.234,0.863-1.958s-0.313-1.389-0.863-1.958c0.55-0.57,0.863-1.234,0.863-1.958   s-0.313-1.389-0.863-1.958c0.55-0.57,0.863-1.235,0.863-1.959C96.322,53.299,96.009,52.634,95.459,52.065z M89.488,48.189   c2.906,0,4.833,1.154,4.833,1.917s-1.928,1.917-4.833,1.917s-4.833-1.153-4.833-1.917S86.583,48.189,89.488,48.189z M89.488,54.023   c1.633,0,3.094-0.299,4.245-0.807c0.369,0.276,0.588,0.561,0.588,0.807c0,0.763-1.928,1.917-4.833,1.917s-4.833-1.154-4.833-1.917   c0-0.246,0.219-0.532,0.589-0.807C86.394,53.724,87.855,54.023,89.488,54.023z M73.857,32.522c2.906,0,4.834,1.154,4.834,1.917   s-1.928,1.917-4.834,1.917s-4.833-1.153-4.833-1.917S70.951,32.522,73.857,32.522z M73.857,38.355c1.634,0,3.095-0.299,4.245-0.807   c0.369,0.276,0.589,0.561,0.589,0.807c0,0.763-1.928,1.917-4.834,1.917s-4.833-1.154-4.833-1.917c0-0.246,0.219-0.532,0.589-0.807   C70.763,38.056,72.223,38.355,73.857,38.355z M73.857,42.272c1.634,0,3.095-0.299,4.245-0.807c0.369,0.276,0.589,0.561,0.589,0.807   c0,0.763-1.928,1.917-4.834,1.917s-4.833-1.154-4.833-1.917c0-0.246,0.219-0.532,0.589-0.807   C70.763,41.973,72.224,42.272,73.857,42.272z M73.857,46.189c1.634,0,3.095-0.299,4.245-0.808c0.369,0.276,0.589,0.561,0.589,0.808   c0,0.763-1.928,1.917-4.834,1.917s-4.833-1.154-4.833-1.917c0-0.246,0.219-0.532,0.589-0.808   C70.763,45.89,72.223,46.189,73.857,46.189z M73.857,50.106c1.634,0,3.095-0.299,4.245-0.808c0.369,0.276,0.589,0.561,0.589,0.808   c0,0.763-1.928,1.917-4.834,1.917s-4.833-1.153-4.833-1.917c0-0.246,0.219-0.532,0.589-0.808   C70.763,49.807,72.223,50.106,73.857,50.106z M73.857,54.023c1.634,0,3.095-0.299,4.245-0.807c0.369,0.276,0.589,0.561,0.589,0.807   c0,0.763-1.928,1.917-4.834,1.917s-4.833-1.154-4.833-1.917c0-0.246,0.219-0.532,0.589-0.807   C70.763,53.724,72.223,54.023,73.857,54.023z M73.857,57.94c1.634,0,3.095-0.299,4.245-0.807c0.369,0.276,0.589,0.561,0.589,0.807   c0,0.763-1.928,1.917-4.834,1.917s-4.833-1.154-4.833-1.917c0-0.246,0.219-0.532,0.589-0.807   C70.763,57.641,72.224,57.94,73.857,57.94z M73.857,61.857c1.634,0,3.095-0.299,4.245-0.808c0.369,0.276,0.589,0.561,0.589,0.808   c0,0.763-1.928,1.917-4.834,1.917s-4.833-1.154-4.833-1.917c0-0.246,0.219-0.532,0.589-0.808   C70.763,61.558,72.223,61.857,73.857,61.857z M73.857,65.774c0.673,0,1.315-0.053,1.921-0.148c-0.316,0.612-0.54,1.278-0.658,1.981   c-0.398,0.049-0.814,0.084-1.263,0.084c-2.906,0-4.833-1.153-4.833-1.917c0-0.246,0.219-0.532,0.589-0.808   C70.763,65.475,72.223,65.774,73.857,65.774z M73.857,71.607c-2.906,0-4.833-1.154-4.833-1.917c0-0.246,0.219-0.532,0.589-0.807   c1.151,0.508,2.612,0.807,4.245,0.807c0.421,0,0.828-0.023,1.223-0.061c0.083,0.64,0.25,1.253,0.498,1.825   C75.053,71.546,74.483,71.607,73.857,71.607z M81.85,73.58c-2.665,0-4.833-2.168-4.833-4.833s2.168-4.833,4.833-4.833   s4.833,2.168,4.833,4.833S84.515,73.58,81.85,73.58z M94.322,69.69c0,0.763-1.928,1.917-4.833,1.917   c-0.498,0-0.955-0.043-1.391-0.104c0.256-0.578,0.431-1.198,0.518-1.846c0.286,0.019,0.575,0.032,0.873,0.032   c1.633,0,3.094-0.299,4.245-0.807C94.103,69.159,94.322,69.444,94.322,69.69z M94.322,65.774c0,0.763-1.928,1.917-4.833,1.917   c-0.314,0-0.611-0.019-0.902-0.044c-0.114-0.697-0.331-1.358-0.639-1.967c0.493,0.06,1.006,0.095,1.54,0.095   c1.633,0,3.094-0.299,4.245-0.808C94.103,65.242,94.322,65.528,94.322,65.774z M94.322,61.857c0,0.763-1.928,1.917-4.833,1.917   s-4.833-1.154-4.833-1.917c0-0.246,0.219-0.532,0.589-0.808c1.151,0.509,2.612,0.808,4.245,0.808s3.094-0.299,4.245-0.808   C94.103,61.325,94.322,61.611,94.322,61.857z M94.322,57.94c0,0.763-1.928,1.917-4.833,1.917s-4.833-1.154-4.833-1.917   c0-0.246,0.219-0.532,0.589-0.807c1.151,0.508,2.611,0.807,4.245,0.807s3.094-0.299,4.245-0.807   C94.103,57.408,94.322,57.694,94.322,57.94z" style="fill: inherit;"></path><path d="M58.146,63.857c-3.896,0-6.833,1.684-6.833,3.917c0,0.724,0.313,1.389,0.863,1.958c-0.55,0.57-0.863,1.234-0.863,1.958   c0,2.233,2.938,3.917,6.833,3.917s6.833-1.684,6.833-3.917c0-0.724-0.313-1.389-0.863-1.958c0.55-0.57,0.863-1.234,0.863-1.958   C64.98,65.541,62.042,63.857,58.146,63.857z M58.146,65.857c2.906,0,4.833,1.154,4.833,1.917s-1.928,1.917-4.833,1.917   s-4.833-1.154-4.833-1.917S55.241,65.857,58.146,65.857z M62.98,71.691c0,0.763-1.928,1.917-4.833,1.917s-4.833-1.153-4.833-1.917   c0-0.246,0.219-0.532,0.589-0.808c1.151,0.509,2.612,0.808,4.245,0.808s3.094-0.299,4.245-0.808   C62.761,71.159,62.98,71.445,62.98,71.691z" style="fill: inherit;"></path></g></svg>