<svg id="icon" xmlns="http://www.w3.org/2000/svg" viewBox="0 0 128 128"><title xmlns="http://www.w3.org/2000/svg" style="fill: inherit;">Business Elements 02 expandline</title><path xmlns="http://www.w3.org/2000/svg" d="M.22656,29.019,18,91.12488V76.58673L4.07227,27.91895a1.81246,1.81246,0,0,1,1.18848-2.23926L18,21.84656V17.6698L4.1084,21.84961A5.82861,5.82861,0,0,0,.22656,29.019Z" style="fill: inherit;"></path><path xmlns="http://www.w3.org/2000/svg" d="M123.8916,21.84961,110,17.6698v4.17676l12.73926,3.83313a1.81215,1.81215,0,0,1,1.18848,2.23877L110,76.58673V91.12506l17.77344-62.10651A5.8283,5.8283,0,0,0,123.8916,21.84961Z" style="fill: inherit;"></path><path xmlns="http://www.w3.org/2000/svg" d="M88,17H40a2,2,0,0,0,0,4H88a2,2,0,0,0,0-4Z" style="fill: inherit;"></path><path xmlns="http://www.w3.org/2000/svg" d="M88,25H40a2,2,0,0,0,0,4H88a2,2,0,0,0,0-4Z" style="fill: inherit;"></path><path xmlns="http://www.w3.org/2000/svg" d="M88,33H40a2,2,0,0,0,0,4H88a2,2,0,0,0,0-4Z" style="fill: inherit;"></path><path xmlns="http://www.w3.org/2000/svg" d="M88,41H40a2,2,0,0,0,0,4H88a2,2,0,0,0,0-4Z" style="fill: inherit;"></path><path xmlns="http://www.w3.org/2000/svg" d="M88,49H40a2,2,0,0,0,0,4H88a2,2,0,0,0,0-4Z" style="fill: inherit;"></path><path xmlns="http://www.w3.org/2000/svg" d="M88,57H40a2,2,0,0,0,0,4H88a2,2,0,0,0,0-4Z" style="fill: inherit;"></path><path xmlns="http://www.w3.org/2000/svg" d="M90,67a2.0001,2.0001,0,0,0-2-2H40a2,2,0,0,0,0,4H88A2.0001,2.0001,0,0,0,90,67Z" style="fill: inherit;"></path><path xmlns="http://www.w3.org/2000/svg" d="M38,83a2.0001,2.0001,0,0,0,2,2H70.36707a16.39361,16.39361,0,0,1,.91223-4H40A2.0001,2.0001,0,0,0,38,83Z" style="fill: inherit;"></path><path xmlns="http://www.w3.org/2000/svg" d="M28,120a2.00229,2.00229,0,0,1-2-2V10a2.00229,2.00229,0,0,1,2-2h72a2.00229,2.00229,0,0,1,2,2V79.63672a16.3117,16.3117,0,0,1,0,13.89166V104.5h.42871A8.51492,8.51492,0,0,1,106,105.28857V10a6.00656,6.00656,0,0,0-6-6H28a6.00656,6.00656,0,0,0-6,6V118a6.00656,6.00656,0,0,0,6,6H64.33063a8.487,8.487,0,0,1-1.30219-4Z" style="fill: inherit;"></path><path xmlns="http://www.w3.org/2000/svg" d="M102.42871,108.5H96.07129v-.48193c0-2.35791-1.2373-4.18994-2.95508-4.51123a25.30753,25.30753,0,0,1,2.68457-7.93213l.03906-.07861a12.43952,12.43952,0,0,0,3.71289-8.90332A12.63338,12.63338,0,1,0,78.291,95.77637l.02734.05664a25.52089,25.52089,0,0,1,2.56348,7.67383c-1.7168.32227-2.95312,2.15381-2.95312,4.51123V108.5H71.57129A4.57172,4.57172,0,0,0,67,113.06152v6.377A4.57172,4.57172,0,0,0,71.57129,124h30.85742A4.57172,4.57172,0,0,0,107,119.43848v-6.377A4.57172,4.57172,0,0,0,102.42871,108.5ZM103,119.43848a.56688.56688,0,0,1-.57129.56152H71.57129A.56688.56688,0,0,1,71,119.43848v-6.377a.56688.56688,0,0,1,.57129-.56152h8.35742a2.0001,2.0001,0,0,0,2-2v-2.48193A2.10747,2.10747,0,0,1,82,107.45654h1.14258a1.9993,1.9993,0,0,0,1.99121-2.18555,29.176,29.176,0,0,0-3.20605-11.16162l-.19531-.40967a2.00359,2.00359,0,0,0-.49219-.64893,8.60689,8.60689,0,1,1,14.3125-6.458,8.48981,8.48981,0,0,1-2.72363,6.25,2.01023,2.01023,0,0,0-.42969.58252l-.19043.38965a29.44358,29.44358,0,0,0-3.34277,11.45654,1.99923,1.99923,0,0,0,1.99121,2.18506H92a2.10747,2.10747,0,0,1,.07129.56152V110.5a2.0001,2.0001,0,0,0,2,2h8.35742a.56688.56688,0,0,1,.57129.56152Z" style="fill: inherit;"></path><path xmlns="http://www.w3.org/2000/svg" d="M64.06445,92.68994a3.71788,3.71788,0,0,0-3.33887-.49072c-2.124.76514-2.97461,3.3457-3.875,6.07764a17.39391,17.39391,0,0,1-1.79687,4.25879c-.07812-.24365-.15234-.50146-.21484-.71436-.52148-1.79639-1.49609-5.13525-4.918-4.77295-2.75293.29688-3.93848,2.75244-4.98535,4.91943-1.126,2.33252-1.92578,3.7666-3.53711,4.01074a1.53184,1.53184,0,0,1-.28906.021c-.36719-.81152.13867-3.80908,1.07324-6.24512a2.0002,2.0002,0,0,0-3.7334-1.437c-.65918,1.71-2.63574,7.50244-.416,10.26562a3.86161,3.86161,0,0,0,3.11914,1.4165,5.65907,5.65907,0,0,0,.8457-.06592c3.8125-.57812,5.38867-3.84277,6.54-6.22656.53613-1.11182,1.19824-2.48193,1.75781-2.665a8.68762,8.68762,0,0,1,.70215,1.89648c.44336,1.52393.94531,3.251,2.58008,3.88037a3.43709,3.43709,0,0,0,3.14063-.457c2.1084-1.30029,3.03516-4.11279,3.93164-6.833a18.52434,18.52434,0,0,1,1.35547-3.41016,2,2,0,0,0,2.05859-3.42871Z" style="fill: inherit;"></path><path xmlns="http://www.w3.org/2000/svg" d="M38,75a2.0001,2.0001,0,0,0,2,2H73.37231a16.73441,16.73441,0,0,1,4.03638-4H40A2.0001,2.0001,0,0,0,38,75Z" style="fill: inherit;"></path></svg>