<svg id="icon" xmlns="http://www.w3.org/2000/svg" xmlns:xlink="http://www.w3.org/1999/xlink" viewBox="0 0 100 100"><path xmlns="http://www.w3.org/2000/svg" d="M50,7.6C26.6,7.6,7.6,26.6,7.6,50c0,23.4,19,42.4,42.4,42.4s42.4-19,42.4-42.4C92.4,26.6,73.4,7.6,50,7.6z M50,87.7  c-20.8,0-37.7-16.9-37.7-37.7c0-20.8,16.9-37.7,37.7-37.7S87.7,29.2,87.7,50C87.7,70.8,70.8,87.7,50,87.7z" style="fill: inherit;"></path><path xmlns="http://www.w3.org/2000/svg" d="M65.4,47.4H52.5V23.3c0-1.4-1.1-2.6-2.6-2.6c-1.4,0-2.6,1.1-2.6,2.6V50c0,0,0,0,0,0c0,0,0,0,0,0c0,1.4,1.1,2.6,2.6,2.6h15.5  c1.4,0,2.6-1.1,2.6-2.6C67.9,48.6,66.8,47.4,65.4,47.4z" style="fill: inherit;"></path></svg>